<?xml version="1.0" standalone="no"?>
<!DOCTYPE svg PUBLIC "-//W3C//DTD SVG 20010904//EN"
 "http://www.w3.org/TR/2001/REC-SVG-20010904/DTD/svg10.dtd">
<svg version="1.0" xmlns="http://www.w3.org/2000/svg"
 width="390.000000pt" height="390.000000pt" viewBox="0 0 390.000000 390.000000"
 preserveAspectRatio="xMidYMid meet">
<metadata>
Created by potrace 1.11, written by Peter Selinger 2001-2013
</metadata>
<g transform="translate(0.000000,390.000000) scale(0.100000,-0.100000)"
fill="#000000" stroke="none">
<path d="M1980 3843 c-52 -31 -104 -61 -115 -67 -154 -86 -295 -170 -295 -175
0 -4 -6 -8 -12 -8 -7 0 -51 -23 -98 -50 -47 -28 -102 -60 -123 -72 -21 -12
-98 -56 -170 -98 -73 -42 -222 -128 -332 -191 -110 -64 -224 -129 -252 -145
-29 -16 -53 -33 -53 -38 0 -6 -3 -8 -8 -6 -4 3 -63 -28 -132 -68 l-125 -72 0
-903 0 -903 31 -18 c31 -17 203 -117 379 -219 50 -29 108 -62 130 -75 22 -12
128 -73 235 -135 107 -62 214 -123 237 -136 23 -13 92 -53 154 -89 61 -36 116
-67 122 -68 6 -1 17 -8 26 -16 9 -7 125 -76 258 -152 l242 -139 508 291 c280
161 513 298 519 305 6 8 13 11 16 9 3 -3 22 6 42 20 20 14 38 25 40 25 2 0 70
39 152 86 82 48 169 98 194 112 67 37 80 46 80 53 0 3 -115 72 -255 153 l-255
146 -83 -47 c-45 -27 -89 -52 -98 -58 -9 -5 -32 -19 -50 -29 -19 -10 -208
-120 -422 -243 l-387 -224 -128 75 c-70 40 -143 83 -162 95 -19 11 -42 24 -50
28 -8 4 -47 26 -86 50 -39 24 -76 43 -82 43 -6 0 -12 3 -14 8 -2 4 -16 14 -33
23 -16 9 -70 40 -120 69 -49 28 -108 62 -130 75 -22 12 -128 73 -235 135 -107
62 -208 121 -225 130 l-30 17 0 602 0 603 225 130 c124 72 243 141 265 153 22
13 150 86 283 164 134 78 248 141 253 141 5 0 9 5 9 10 0 6 4 10 9 10 5 0 63
31 129 70 l121 69 98 -56 c54 -31 116 -66 138 -77 22 -12 42 -23 45 -26 3 -3
175 -104 383 -223 l378 -217 67 39 c37 21 83 48 102 59 122 69 337 195 345
203 5 6 5 9 -2 9 -9 0 -175 94 -603 343 -19 11 -55 31 -80 45 -25 13 -49 27
-55 32 -5 4 -30 19 -55 32 -25 14 -61 34 -80 45 -81 47 -196 115 -210 123 -47
29 -469 270 -472 270 -2 -1 -46 -26 -98 -57z"/>
<path d="M1920 2608 c-85 -50 -173 -100 -195 -112 -105 -58 -155 -89 -155 -95
0 -4 -6 -8 -12 -8 -7 0 -38 -15 -68 -33 -30 -18 -68 -40 -85 -49 -16 -10 -47
-27 -67 -40 l-38 -23 0 -298 0 -298 40 -26 c22 -14 42 -26 44 -26 3 0 27 -13
54 -29 26 -15 68 -39 93 -53 24 -14 158 -91 296 -172 l253 -147 192 112 c106
61 211 122 233 134 22 13 110 63 195 112 l155 89 3 301 2 301 -32 20 c-18 11
-49 29 -68 40 -19 11 -75 43 -125 72 -49 29 -106 62 -125 72 -19 11 -124 72
-232 134 -109 63 -199 114 -200 114 -2 -1 -73 -42 -158 -92z"/>
</g>
</svg>
